# xmcd CD database file
#
# Track frame offsets:
#	150
#	12230
#	35487
#	62954
#	90272
#	120902
#	155712
#	181347
#	194553
#	238374
#	263775
#	281297
#
# Disc length: 4237 seconds
#
# Revision: 1
# Processed by: cddbd v1.5.2PL0 Copyright (c) Steve Scherf et al.
# Submitted via: CDex 1.70beta2
#
DISCID=a1108b0c
DTITLE=Sonny Rollins - The Best
DYEAR=2008
DGENRE=Jazz
TTITLE0=On A Slow Boat To China
TTITLE1=Oleo
TTITLE2=It'sAlright With Me
TTITLE3=My Reverie
TTITLE4=St. Thomas
TTITLE5=Brilliant Corners
TTITLE6=I'm An Old Cowhand
TTITLE7=The Last Time I Saw Paris
TTITLE8=Alfie's Theme
TTITLE9=God Bless The Child
TTITLE10=Mona Lisa
TTITLE11=A Nightingale Sang In Berkeley Square
EXTD=YEAR: 2008
EXTT0=
EXTT1=
EXTT2=
EXTT3=
EXTT4=
EXTT5=
EXTT6=
EXTT7=
EXTT8=
EXTT9=
EXTT10=
EXTT11=
PLAYORDER=
